{
    "asset" : {
        "generator" : "Khronos glTF Blender I/O v1.2.75",
        "version" : "2.0"
    },
    "scene" : 0,
    "scenes" : [
        {
            "name" : "Scene",
            "nodes" : [
                0
            ]
        }
    ],
    "nodes" : [
        {
            "mesh" : 0,
            "name" : "Cube"
        }
    ],
    "materials" : [
        {
            "doubleSided" : true,
            "emissiveFactor" : [
                0,
                0,
                0
            ],
            "name" : "LowPolyColours",
            "pbrMetallicRoughness" : {
                "baseColorTexture" : {
                    "index" : 0,
                    "texCoord" : 0
                },
                "metallicFactor" : 0.380952388048172,
                "roughnessFactor" : 0.8285714387893677
            }
        },
        {
            "doubleSided" : true,
            "emissiveFactor" : [
                1,
                1,
                1
            ],
            "emissiveTexture" : {
                "index" : 1,
                "texCoord" : 0
            },
            "name" : "LowPolyGlow",
            "pbrMetallicRoughness" : {}
        }
    ],
    "meshes" : [
        {
            "name" : "Cube",
            "primitives" : [
                {
                    "attributes" : {
                        "POSITION" : 0,
                        "NORMAL" : 1,
                        "TEXCOORD_0" : 2
                    },
                    "indices" : 3,
                    "material" : 0
                },
                {
                    "attributes" : {
                        "POSITION" : 4,
                        "NORMAL" : 5,
                        "TEXCOORD_0" : 6
                    },
                    "indices" : 7,
                    "material" : 1
                }
            ]
        }
    ],
    "textures" : [
        {
            "source" : 0
        },
        {
            "source" : 0
        }
    ],
    "images" : [
        {
            "bufferView" : 4,
            "mimeType" : "image/jpeg",
            "name" : "ColourPalette2"
        }
    ],
    "accessors" : [
        {
            "bufferView" : 0,
            "componentType" : 5126,
            "count" : 5435,
            "max" : [
                2.336733341217041,
                0.7438738346099854,
                3.528456926345825
            ],
            "min" : [
                -2.336733341217041,
                -0.4324065148830414,
                -1.4536136388778687
            ],
            "type" : "VEC3"
        },
        {
            "bufferView" : 1,
            "componentType" : 5126,
            "count" : 5435,
            "type" : "VEC3"
        },
        {
            "bufferView" : 2,
            "componentType" : 5126,
            "count" : 5435,
            "type" : "VEC2"
        },
        {
            "bufferView" : 3,
            "componentType" : 5123,
            "count" : 5472,
            "type" : "SCALAR"
        },
        {
            "bufferView" : 5,
            "componentType" : 5126,
            "count" : 228,
            "max" : [
                0.9535335302352905,
                0.5153124928474426,
                2.570129156112671
            ],
            "min" : [
                -0.9535335302352905,
                -0.33470749855041504,
                -0.9086255431175232
            ],
            "type" : "VEC3"
        },
        {
            "bufferView" : 6,
            "componentType" : 5126,
            "count" : 228,
            "type" : "VEC3"
        },
        {
            "bufferView" : 7,
            "componentType" : 5126,
            "count" : 228,
            "type" : "VEC2"
        },
        {
            "bufferView" : 8,
            "componentType" : 5123,
            "count" : 228,
            "type" : "SCALAR"
        }
    ],
    "bufferViews" : [
        {
            "buffer" : 0,
            "byteLength" : 65220,
            "byteOffset" : 0
        },
        {
            "buffer" : 0,
            "byteLength" : 65220,
            "byteOffset" : 65220
        },
        {
            "buffer" : 0,
            "byteLength" : 43480,
            "byteOffset" : 130440
        },
        {
            "buffer" : 0,
            "byteLength" : 10944,
            "byteOffset" : 173920
        },
        {
            "buffer" : 0,
            "byteLength" : 59750,
            "byteOffset" : 184864
        },
        {
            "buffer" : 0,
            "byteLength" : 2736,
            "byteOffset" : 244616
        },
        {
            "buffer" : 0,
            "byteLength" : 2736,
            "byteOffset" : 247352
        },
        {
            "buffer" : 0,
            "byteLength" : 1824,
            "byteOffset" : 250088
        },
        {
            "buffer" : 0,
            "byteLength" : 456,
            "byteOffset" : 251912
        }
    ],
    "buffers" : [
        {
            "byteLength" : 252368,
            "uri" : "data:application/octet-stream;base64,"
        }
    ]
}
