{
    "asset" : {
        "generator" : "Khronos glTF Blender I/O v1.2.75",
        "version" : "2.0"
    },
    "scene" : 0,
    "scenes" : [
        {
            "name" : "Scene",
            "nodes" : [
                0
            ]
        }
    ],
    "nodes" : [
        {
            "mesh" : 0,
            "name" : "Cube"
        }
    ],
    "materials" : [
        {
            "doubleSided" : true,
            "emissiveFactor" : [
                0,
                0,
                0
            ],
            "name" : "LowPolyColours",
            "pbrMetallicRoughness" : {
                "baseColorTexture" : {
                    "index" : 0,
                    "texCoord" : 0
                },
                "metallicFactor" : 0.380952388048172,
                "roughnessFactor" : 0.8285714387893677
            }
        },
        {
            "doubleSided" : true,
            "emissiveFactor" : [
                1,
                1,
                1
            ],
            "emissiveTexture" : {
                "index" : 1,
                "texCoord" : 0
            },
            "name" : "LowPolyGlow",
            "pbrMetallicRoughness" : {}
        }
    ],
    "meshes" : [
        {
            "name" : "Cube.001",
            "primitives" : [
                {
                    "attributes" : {
                        "POSITION" : 0,
                        "NORMAL" : 1,
                        "TEXCOORD_0" : 2
                    },
                    "indices" : 3,
                    "material" : 0
                },
                {
                    "attributes" : {
                        "POSITION" : 4,
                        "NORMAL" : 5,
                        "TEXCOORD_0" : 6
                    },
                    "indices" : 7,
                    "material" : 1
                }
            ]
        }
    ],
    "textures" : [
        {
            "source" : 0
        },
        {
            "source" : 0
        }
    ],
    "images" : [
        {
            "bufferView" : 4,
            "mimeType" : "image/jpeg",
            "name" : "ColourPalette2"
        }
    ],
    "accessors" : [
        {
            "bufferView" : 0,
            "componentType" : 5126,
            "count" : 2496,
            "max" : [
                3.6302363872528076,
                0.9962591528892517,
                1.644694447517395
            ],
            "min" : [
                -2.6504323482513428,
                -4.222102642059326,
                -5.542262554168701
            ],
            "type" : "VEC3"
        },
        {
            "bufferView" : 1,
            "componentType" : 5126,
            "count" : 2496,
            "type" : "VEC3"
        },
        {
            "bufferView" : 2,
            "componentType" : 5126,
            "count" : 2496,
            "type" : "VEC2"
        },
        {
            "bufferView" : 3,
            "componentType" : 5123,
            "count" : 2646,
            "type" : "SCALAR"
        },
        {
            "bufferView" : 5,
            "componentType" : 5126,
            "count" : 85,
            "max" : [
                2.1227383613586426,
                0.3293682038784027,
                1.874091625213623
            ],
            "min" : [
                -0.3293682038784027,
                -0.4858538508415222,
                -2.8240108489990234
            ],
            "type" : "VEC3"
        },
        {
            "bufferView" : 6,
            "componentType" : 5126,
            "count" : 85,
            "type" : "VEC3"
        },
        {
            "bufferView" : 7,
            "componentType" : 5126,
            "count" : 85,
            "type" : "VEC2"
        },
        {
            "bufferView" : 8,
            "componentType" : 5123,
            "count" : 102,
            "type" : "SCALAR"
        }
    ],
    "bufferViews" : [
        {
            "buffer" : 0,
            "byteLength" : 29952,
            "byteOffset" : 0
        },
        {
            "buffer" : 0,
            "byteLength" : 29952,
            "byteOffset" : 29952
        },
        {
            "buffer" : 0,
            "byteLength" : 19968,
            "byteOffset" : 59904
        },
        {
            "buffer" : 0,
            "byteLength" : 5292,
            "byteOffset" : 79872
        },
        {
            "buffer" : 0,
            "byteLength" : 59750,
            "byteOffset" : 85164
        },
        {
            "buffer" : 0,
            "byteLength" : 1020,
            "byteOffset" : 144916
        },
        {
            "buffer" : 0,
            "byteLength" : 1020,
            "byteOffset" : 145936
        },
        {
            "buffer" : 0,
            "byteLength" : 680,
            "byteOffset" : 146956
        },
        {
            "buffer" : 0,
            "byteLength" : 204,
            "byteOffset" : 147636
        }
    ],
    "buffers" : [
        {
            "byteLength" : 147840,
            "uri" : "data:application/octet-stream;base64,"
        }
    ]
}
