{
    "asset" : {
        "generator" : "Khronos glTF Blender I/O v1.2.75",
        "version" : "2.0"
    },
    "scene" : 0,
    "scenes" : [
        {
            "name" : "Scene",
            "nodes" : [
                0
            ]
        }
    ],
    "nodes" : [
        {
            "mesh" : 0,
            "name" : "Cube"
        }
    ],
    "materials" : [
        {
            "doubleSided" : true,
            "emissiveFactor" : [
                0,
                0,
                0
            ],
            "name" : "LowPolyColours",
            "pbrMetallicRoughness" : {
                "baseColorTexture" : {
                    "index" : 0,
                    "texCoord" : 0
                },
                "metallicFactor" : 0.380952388048172,
                "roughnessFactor" : 0.8285714387893677
            }
        },
        {
            "doubleSided" : true,
            "emissiveFactor" : [
                1,
                1,
                1
            ],
            "emissiveTexture" : {
                "index" : 1,
                "texCoord" : 0
            },
            "name" : "LowPolyGlow",
            "pbrMetallicRoughness" : {}
        }
    ],
    "meshes" : [
        {
            "name" : "Cube.001",
            "primitives" : [
                {
                    "attributes" : {
                        "POSITION" : 0,
                        "NORMAL" : 1,
                        "TEXCOORD_0" : 2
                    },
                    "indices" : 3,
                    "material" : 0
                },
                {
                    "attributes" : {
                        "POSITION" : 4,
                        "NORMAL" : 5,
                        "TEXCOORD_0" : 6
                    },
                    "indices" : 7,
                    "material" : 1
                }
            ]
        }
    ],
    "textures" : [
        {
            "source" : 0
        },
        {
            "source" : 0
        }
    ],
    "images" : [
        {
            "bufferView" : 4,
            "mimeType" : "image/jpeg",
            "name" : "ColourPalette2"
        }
    ],
    "accessors" : [
        {
            "bufferView" : 0,
            "componentType" : 5126,
            "count" : 2429,
            "max" : [
                3.8318099975585938,
                4.952434062957764,
                13.403241157531738
            ],
            "min" : [
                -5.140221118927002,
                -5.914847373962402,
                -10.769181251525879
            ],
            "type" : "VEC3"
        },
        {
            "bufferView" : 1,
            "componentType" : 5126,
            "count" : 2429,
            "type" : "VEC3"
        },
        {
            "bufferView" : 2,
            "componentType" : 5126,
            "count" : 2429,
            "type" : "VEC2"
        },
        {
            "bufferView" : 3,
            "componentType" : 5123,
            "count" : 4023,
            "type" : "SCALAR"
        },
        {
            "bufferView" : 5,
            "componentType" : 5126,
            "count" : 230,
            "max" : [
                2.3900392055511475,
                2.685997486114502,
                9.681718826293945
            ],
            "min" : [
                -2.3900392055511475,
                -1.9012141227722168,
                -3.3063442707061768
            ],
            "type" : "VEC3"
        },
        {
            "bufferView" : 6,
            "componentType" : 5126,
            "count" : 230,
            "type" : "VEC3"
        },
        {
            "bufferView" : 7,
            "componentType" : 5126,
            "count" : 230,
            "type" : "VEC2"
        },
        {
            "bufferView" : 8,
            "componentType" : 5123,
            "count" : 348,
            "type" : "SCALAR"
        }
    ],
    "bufferViews" : [
        {
            "buffer" : 0,
            "byteLength" : 29148,
            "byteOffset" : 0
        },
        {
            "buffer" : 0,
            "byteLength" : 29148,
            "byteOffset" : 29148
        },
        {
            "buffer" : 0,
            "byteLength" : 19432,
            "byteOffset" : 58296
        },
        {
            "buffer" : 0,
            "byteLength" : 8046,
            "byteOffset" : 77728
        },
        {
            "buffer" : 0,
            "byteLength" : 59750,
            "byteOffset" : 85776
        },
        {
            "buffer" : 0,
            "byteLength" : 2760,
            "byteOffset" : 145528
        },
        {
            "buffer" : 0,
            "byteLength" : 2760,
            "byteOffset" : 148288
        },
        {
            "buffer" : 0,
            "byteLength" : 1840,
            "byteOffset" : 151048
        },
        {
            "buffer" : 0,
            "byteLength" : 696,
            "byteOffset" : 152888
        }
    ],
    "buffers" : [
        {
            "byteLength" : 153584,
            "uri" : "data:application/octet-stream;base64,"
        }
    ]
}
