{
    "asset" : {
        "generator" : "Khronos glTF Blender I/O v1.2.75",
        "version" : "2.0"
    },
    "scene" : 0,
    "scenes" : [
        {
            "name" : "Scene",
            "nodes" : [
                0
            ]
        }
    ],
    "nodes" : [
        {
            "mesh" : 0,
            "name" : "SmallFighter"
        }
    ],
    "materials" : [
        {
            "doubleSided" : true,
            "emissiveFactor" : [
                0,
                0,
                0
            ],
            "name" : "LowPolyColours",
            "pbrMetallicRoughness" : {
                "baseColorTexture" : {
                    "index" : 0,
                    "texCoord" : 0
                },
                "metallicFactor" : 0.380952388048172,
                "roughnessFactor" : 0.8285714387893677
            }
        },
        {
            "doubleSided" : true,
            "emissiveFactor" : [
                1,
                1,
                1
            ],
            "emissiveTexture" : {
                "index" : 1,
                "texCoord" : 0
            },
            "name" : "LowPolyGlow",
            "pbrMetallicRoughness" : {}
        }
    ],
    "meshes" : [
        {
            "name" : "Cube",
            "primitives" : [
                {
                    "attributes" : {
                        "POSITION" : 0,
                        "NORMAL" : 1,
                        "TEXCOORD_0" : 2
                    },
                    "indices" : 3,
                    "material" : 0
                },
                {
                    "attributes" : {
                        "POSITION" : 4,
                        "NORMAL" : 5,
                        "TEXCOORD_0" : 6
                    },
                    "indices" : 7,
                    "material" : 1
                }
            ]
        }
    ],
    "textures" : [
        {
            "source" : 0
        },
        {
            "source" : 0
        }
    ],
    "images" : [
        {
            "bufferView" : 4,
            "mimeType" : "image/jpeg",
            "name" : "ColourPalette2"
        }
    ],
    "accessors" : [
        {
            "bufferView" : 0,
            "componentType" : 5126,
            "count" : 1098,
            "max" : [
                2.536119222640991,
                0.6325945258140564,
                2.197553873062134
            ],
            "min" : [
                -2.536119222640991,
                -0.5318648219108582,
                -2.0172226428985596
            ],
            "type" : "VEC3"
        },
        {
            "bufferView" : 1,
            "componentType" : 5126,
            "count" : 1098,
            "type" : "VEC3"
        },
        {
            "bufferView" : 2,
            "componentType" : 5126,
            "count" : 1098,
            "type" : "VEC2"
        },
        {
            "bufferView" : 3,
            "componentType" : 5123,
            "count" : 1152,
            "type" : "SCALAR"
        },
        {
            "bufferView" : 5,
            "componentType" : 5126,
            "count" : 60,
            "max" : [
                0.6496310830116272,
                0.23925167322158813,
                0.7599815130233765
            ],
            "min" : [
                -0.6496310830116272,
                -0.3796873688697815,
                -1.6962867975234985
            ],
            "type" : "VEC3"
        },
        {
            "bufferView" : 6,
            "componentType" : 5126,
            "count" : 60,
            "type" : "VEC3"
        },
        {
            "bufferView" : 7,
            "componentType" : 5126,
            "count" : 60,
            "type" : "VEC2"
        },
        {
            "bufferView" : 8,
            "componentType" : 5123,
            "count" : 60,
            "type" : "SCALAR"
        }
    ],
    "bufferViews" : [
        {
            "buffer" : 0,
            "byteLength" : 13176,
            "byteOffset" : 0
        },
        {
            "buffer" : 0,
            "byteLength" : 13176,
            "byteOffset" : 13176
        },
        {
            "buffer" : 0,
            "byteLength" : 8784,
            "byteOffset" : 26352
        },
        {
            "buffer" : 0,
            "byteLength" : 2304,
            "byteOffset" : 35136
        },
        {
            "buffer" : 0,
            "byteLength" : 59750,
            "byteOffset" : 37440
        },
        {
            "buffer" : 0,
            "byteLength" : 720,
            "byteOffset" : 97192
        },
        {
            "buffer" : 0,
            "byteLength" : 720,
            "byteOffset" : 97912
        },
        {
            "buffer" : 0,
            "byteLength" : 480,
            "byteOffset" : 98632
        },
        {
            "buffer" : 0,
            "byteLength" : 120,
            "byteOffset" : 99112
        }
    ],
    "buffers" : [
        {
            "byteLength" : 99232,
            "uri" : "data:application/octet-stream;base64,"
        }
    ]
}
