{
    "asset" : {
        "generator" : "Khronos glTF Blender I/O v1.2.75",
        "version" : "2.0"
    },
    "scene" : 0,
    "scenes" : [
        {
            "name" : "Scene",
            "nodes" : [
                0
            ]
        }
    ],
    "nodes" : [
        {
            "mesh" : 0,
            "name" : "Cube.002"
        }
    ],
    "materials" : [
        {
            "doubleSided" : true,
            "emissiveFactor" : [
                0,
                0,
                0
            ],
            "name" : "LowPolyColours",
            "pbrMetallicRoughness" : {
                "baseColorTexture" : {
                    "index" : 0,
                    "texCoord" : 0
                },
                "metallicFactor" : 0.380952388048172,
                "roughnessFactor" : 0.8285714387893677
            }
        },
        {
            "doubleSided" : true,
            "emissiveFactor" : [
                1,
                1,
                1
            ],
            "emissiveTexture" : {
                "index" : 1,
                "texCoord" : 0
            },
            "name" : "LowPolyGlow",
            "pbrMetallicRoughness" : {}
        }
    ],
    "meshes" : [
        {
            "name" : "Cube.003",
            "primitives" : [
                {
                    "attributes" : {
                        "POSITION" : 0,
                        "NORMAL" : 1,
                        "TEXCOORD_0" : 2
                    },
                    "indices" : 3,
                    "material" : 0
                },
                {
                    "attributes" : {
                        "POSITION" : 4,
                        "NORMAL" : 5,
                        "TEXCOORD_0" : 6
                    },
                    "indices" : 7,
                    "material" : 1
                }
            ]
        }
    ],
    "textures" : [
        {
            "source" : 0
        },
        {
            "source" : 0
        }
    ],
    "images" : [
        {
            "bufferView" : 4,
            "mimeType" : "image/jpeg",
            "name" : "ColourPalette2"
        }
    ],
    "accessors" : [
        {
            "bufferView" : 0,
            "componentType" : 5126,
            "count" : 3836,
            "max" : [
                4.370436191558838,
                1.772585153579712,
                4.799619674682617
            ],
            "min" : [
                -4.37043571472168,
                -2.058021068572998,
                -4.424433708190918
            ],
            "type" : "VEC3"
        },
        {
            "bufferView" : 1,
            "componentType" : 5126,
            "count" : 3836,
            "type" : "VEC3"
        },
        {
            "bufferView" : 2,
            "componentType" : 5126,
            "count" : 3836,
            "type" : "VEC2"
        },
        {
            "bufferView" : 3,
            "componentType" : 5123,
            "count" : 3876,
            "type" : "SCALAR"
        },
        {
            "bufferView" : 5,
            "componentType" : 5126,
            "count" : 222,
            "max" : [
                3.995702028274536,
                0.65714430809021,
                4.198300361633301
            ],
            "min" : [
                -3.9957046508789062,
                -1.3306463956832886,
                -4.306472301483154
            ],
            "type" : "VEC3"
        },
        {
            "bufferView" : 6,
            "componentType" : 5126,
            "count" : 222,
            "type" : "VEC3"
        },
        {
            "bufferView" : 7,
            "componentType" : 5126,
            "count" : 222,
            "type" : "VEC2"
        },
        {
            "bufferView" : 8,
            "componentType" : 5123,
            "count" : 222,
            "type" : "SCALAR"
        }
    ],
    "bufferViews" : [
        {
            "buffer" : 0,
            "byteLength" : 46032,
            "byteOffset" : 0
        },
        {
            "buffer" : 0,
            "byteLength" : 46032,
            "byteOffset" : 46032
        },
        {
            "buffer" : 0,
            "byteLength" : 30688,
            "byteOffset" : 92064
        },
        {
            "buffer" : 0,
            "byteLength" : 7752,
            "byteOffset" : 122752
        },
        {
            "buffer" : 0,
            "byteLength" : 59750,
            "byteOffset" : 130504
        },
        {
            "buffer" : 0,
            "byteLength" : 2664,
            "byteOffset" : 190256
        },
        {
            "buffer" : 0,
            "byteLength" : 2664,
            "byteOffset" : 192920
        },
        {
            "buffer" : 0,
            "byteLength" : 1776,
            "byteOffset" : 195584
        },
        {
            "buffer" : 0,
            "byteLength" : 444,
            "byteOffset" : 197360
        }
    ],
    "buffers" : [
        {
            "byteLength" : 197804,
            "uri" : "data:application/octet-stream;base64,"
        }
    ]
}
