{
    "asset" : {
        "generator" : "Khronos glTF Blender I/O v1.2.75",
        "version" : "2.0"
    },
    "scene" : 0,
    "scenes" : [
        {
            "name" : "Scene",
            "nodes" : [
                0
            ]
        }
    ],
    "nodes" : [
        {
            "mesh" : 0,
            "name" : "SmallFrigate"
        }
    ],
    "materials" : [
        {
            "doubleSided" : true,
            "emissiveFactor" : [
                0,
                0,
                0
            ],
            "name" : "LowPolyColours",
            "pbrMetallicRoughness" : {
                "baseColorTexture" : {
                    "index" : 0,
                    "texCoord" : 0
                },
                "metallicFactor" : 0.380952388048172,
                "roughnessFactor" : 0.8285714387893677
            }
        },
        {
            "doubleSided" : true,
            "emissiveFactor" : [
                1,
                1,
                1
            ],
            "emissiveTexture" : {
                "index" : 1,
                "texCoord" : 0
            },
            "name" : "LowPolyGlow",
            "pbrMetallicRoughness" : {}
        }
    ],
    "meshes" : [
        {
            "name" : "Cube.002",
            "primitives" : [
                {
                    "attributes" : {
                        "POSITION" : 0,
                        "NORMAL" : 1,
                        "TEXCOORD_0" : 2
                    },
                    "indices" : 3,
                    "material" : 0
                },
                {
                    "attributes" : {
                        "POSITION" : 4,
                        "NORMAL" : 5,
                        "TEXCOORD_0" : 6
                    },
                    "indices" : 7,
                    "material" : 1
                }
            ]
        }
    ],
    "textures" : [
        {
            "source" : 0
        },
        {
            "source" : 0
        }
    ],
    "images" : [
        {
            "bufferView" : 4,
            "mimeType" : "image/jpeg",
            "name" : "ColourPalette2"
        }
    ],
    "accessors" : [
        {
            "bufferView" : 0,
            "componentType" : 5126,
            "count" : 5734,
            "max" : [
                2.679668664932251,
                1.7809326648712158,
                4.946314334869385
            ],
            "min" : [
                -2.679668426513672,
                -1.7809327840805054,
                -4.462824821472168
            ],
            "type" : "VEC3"
        },
        {
            "bufferView" : 1,
            "componentType" : 5126,
            "count" : 5734,
            "type" : "VEC3"
        },
        {
            "bufferView" : 2,
            "componentType" : 5126,
            "count" : 5734,
            "type" : "VEC2"
        },
        {
            "bufferView" : 3,
            "componentType" : 5123,
            "count" : 6126,
            "type" : "SCALAR"
        },
        {
            "bufferView" : 5,
            "componentType" : 5126,
            "count" : 140,
            "max" : [
                2.126446008682251,
                1.229707956314087,
                4.250631332397461
            ],
            "min" : [
                -2.12644624710083,
                -1.2270476818084717,
                -3.9074337482452393
            ],
            "type" : "VEC3"
        },
        {
            "bufferView" : 6,
            "componentType" : 5126,
            "count" : 140,
            "type" : "VEC3"
        },
        {
            "bufferView" : 7,
            "componentType" : 5126,
            "count" : 140,
            "type" : "VEC2"
        },
        {
            "bufferView" : 8,
            "componentType" : 5123,
            "count" : 156,
            "type" : "SCALAR"
        }
    ],
    "bufferViews" : [
        {
            "buffer" : 0,
            "byteLength" : 68808,
            "byteOffset" : 0
        },
        {
            "buffer" : 0,
            "byteLength" : 68808,
            "byteOffset" : 68808
        },
        {
            "buffer" : 0,
            "byteLength" : 45872,
            "byteOffset" : 137616
        },
        {
            "buffer" : 0,
            "byteLength" : 12252,
            "byteOffset" : 183488
        },
        {
            "buffer" : 0,
            "byteLength" : 59750,
            "byteOffset" : 195740
        },
        {
            "buffer" : 0,
            "byteLength" : 1680,
            "byteOffset" : 255492
        },
        {
            "buffer" : 0,
            "byteLength" : 1680,
            "byteOffset" : 257172
        },
        {
            "buffer" : 0,
            "byteLength" : 1120,
            "byteOffset" : 258852
        },
        {
            "buffer" : 0,
            "byteLength" : 312,
            "byteOffset" : 259972
        }
    ],
    "buffers" : [
        {
            "byteLength" : 260284,
            "uri" : "data:application/octet-stream;base64,"
        }
    ]
}
