{
    "asset" : {
        "generator" : "Khronos glTF Blender I/O v1.2.75",
        "version" : "2.0"
    },
    "scene" : 0,
    "scenes" : [
        {
            "name" : "Scene",
            "nodes" : [
                0
            ]
        }
    ],
    "nodes" : [
        {
            "mesh" : 0,
            "name" : "Shipping Frigate"
        }
    ],
    "materials" : [
        {
            "doubleSided" : true,
            "emissiveFactor" : [
                0,
                0,
                0
            ],
            "name" : "LowPolyColours",
            "pbrMetallicRoughness" : {
                "baseColorTexture" : {
                    "index" : 0,
                    "texCoord" : 0
                },
                "metallicFactor" : 0.380952388048172,
                "roughnessFactor" : 0.8285714387893677
            }
        },
        {
            "doubleSided" : true,
            "emissiveFactor" : [
                1,
                1,
                1
            ],
            "emissiveTexture" : {
                "index" : 1,
                "texCoord" : 0
            },
            "name" : "LowPolyGlow",
            "pbrMetallicRoughness" : {}
        }
    ],
    "meshes" : [
        {
            "name" : "Cylinder",
            "primitives" : [
                {
                    "attributes" : {
                        "POSITION" : 0,
                        "NORMAL" : 1,
                        "TEXCOORD_0" : 2
                    },
                    "indices" : 3,
                    "material" : 0
                },
                {
                    "attributes" : {
                        "POSITION" : 4,
                        "NORMAL" : 5,
                        "TEXCOORD_0" : 6
                    },
                    "indices" : 7,
                    "material" : 1
                }
            ]
        }
    ],
    "textures" : [
        {
            "source" : 0
        },
        {
            "source" : 0
        }
    ],
    "images" : [
        {
            "bufferView" : 4,
            "mimeType" : "image/jpeg",
            "name" : "ColourPalette2"
        }
    ],
    "accessors" : [
        {
            "bufferView" : 0,
            "componentType" : 5126,
            "count" : 10060,
            "max" : [
                9.578027725219727,
                9.57802963256836,
                4.578612804412842
            ],
            "min" : [
                -9.578027725219727,
                -9.578025817871094,
                -48.570228576660156
            ],
            "type" : "VEC3"
        },
        {
            "bufferView" : 1,
            "componentType" : 5126,
            "count" : 10060,
            "type" : "VEC3"
        },
        {
            "bufferView" : 2,
            "componentType" : 5126,
            "count" : 10060,
            "type" : "VEC2"
        },
        {
            "bufferView" : 3,
            "componentType" : 5123,
            "count" : 10308,
            "type" : "SCALAR"
        },
        {
            "bufferView" : 5,
            "componentType" : 5126,
            "count" : 18,
            "max" : [
                3.313037872314453,
                3.313037872314453,
                -0.02796442247927189
            ],
            "min" : [
                -3.3130381107330322,
                -3.313037872314453,
                -0.02796471305191517
            ],
            "type" : "VEC3"
        },
        {
            "bufferView" : 6,
            "componentType" : 5126,
            "count" : 18,
            "type" : "VEC3"
        },
        {
            "bufferView" : 7,
            "componentType" : 5126,
            "count" : 18,
            "type" : "VEC2"
        },
        {
            "bufferView" : 8,
            "componentType" : 5123,
            "count" : 18,
            "type" : "SCALAR"
        }
    ],
    "bufferViews" : [
        {
            "buffer" : 0,
            "byteLength" : 120720,
            "byteOffset" : 0
        },
        {
            "buffer" : 0,
            "byteLength" : 120720,
            "byteOffset" : 120720
        },
        {
            "buffer" : 0,
            "byteLength" : 80480,
            "byteOffset" : 241440
        },
        {
            "buffer" : 0,
            "byteLength" : 20616,
            "byteOffset" : 321920
        },
        {
            "buffer" : 0,
            "byteLength" : 59750,
            "byteOffset" : 342536
        },
        {
            "buffer" : 0,
            "byteLength" : 216,
            "byteOffset" : 402288
        },
        {
            "buffer" : 0,
            "byteLength" : 216,
            "byteOffset" : 402504
        },
        {
            "buffer" : 0,
            "byteLength" : 144,
            "byteOffset" : 402720
        },
        {
            "buffer" : 0,
            "byteLength" : 36,
            "byteOffset" : 402864
        }
    ],
    "buffers" : [
        {
            "byteLength" : 402900,
            "uri" : "data:application/octet-stream;base64,"
        }
    ]
}
