{
    "asset" : {
        "generator" : "Khronos glTF Blender I/O v1.0.5",
        "version" : "2.0"
    },
    "scene" : 0,
    "scenes" : [
        {
            "name" : "Scene",
            "nodes" : [
                1,
                2,
                3
            ]
        }
    ],
    "nodes" : [
        {
            "camera" : 0,
            "name" : "Camera",
            "rotation" : [
                -0.7071067690849304,
                0,
                0,
                0.7071067690849304
            ]
        },
        {
            "children" : [
                0
            ],
            "rotation" : [
                0.483536034822464,
                0.33687159419059753,
                -0.20870360732078552,
                0.7804827094078064
            ],
            "translation" : [
                7.476339340209961,
                4.958309173583984,
                6.678789138793945
            ]
        },
        {
            "mesh" : 0,
            "name" : "fighter_ship",
            "rotation" : [
                0.6399755477905273,
                0.3007180690765381,
                -0.30071812868118286,
                0.6399754285812378
            ]
        },
        {
            "mesh" : 1,
            "name" : "enemy_ship",
            "rotation" : [
                0.7071068286895752,
                0,
                0,
                0.7071067094802856
            ],
            "translation" : [
                -9.842617988586426,
                6.801355838775635,
                -10.160460472106934
            ]
        }
    ],
    "cameras" : [
        {
            "name" : "Camera",
            "perspective" : {
                "yfov" : 0.39959652046304894,
                "zfar" : 100,
                "znear" : 0.10000000149011612
            },
            "type" : "perspective"
        }
    ],
    "materials" : [
        {
            "doubleSided" : true,
            "name" : "Material.001",
            "pbrMetallicRoughness" : {
                "baseColorTexture" : {
                    "index" : 0,
                    "texCoord" : 0
                },
                "metallicFactor" : 0,
                "roughnessFactor" : 0.5
            }
        },
        {
            "doubleSided" : true,
            "name" : "Material.002",
            "pbrMetallicRoughness" : {
                "baseColorTexture" : {
                    "index" : 1,
                    "texCoord" : 0
                },
                "metallicFactor" : 0,
                "roughnessFactor" : 0.5
            }
        }
    ],
    "meshes" : [
        {
            "name" : "Cube.001",
            "primitives" : [
                {
                    "attributes" : {
                        "POSITION" : 0,
                        "NORMAL" : 1,
                        "TEXCOORD_0" : 2
                    },
                    "indices" : 3,
                    "material" : 0
                }
            ]
        },
        {
            "name" : "Cube_Cube.000",
            "primitives" : [
                {
                    "attributes" : {
                        "POSITION" : 4,
                        "NORMAL" : 5,
                        "TEXCOORD_0" : 6
                    },
                    "indices" : 7,
                    "material" : 1
                }
            ]
        }
    ],
    "textures" : [
        {
            "source" : 0
        },
        {
            "source" : 0
        }
    ],
    "images" : [
        {
            "mimeType" : "image/jpeg",
            "name" : "ColourPalette2",
            "uri" : "ColourPalette2.jpg"
        }
    ],
    "accessors" : [
        {
            "bufferView" : 0,
            "componentType" : 5126,
            "count" : 3174,
            "max" : [
                2.336733102798462,
                2.6109580993652344,
                0.4324069917201996
            ],
            "min" : [
                -2.336733102798462,
                -2.371112108230591,
                -0.7438740134239197
            ],
            "type" : "VEC3"
        },
        {
            "bufferView" : 1,
            "componentType" : 5126,
            "count" : 3174,
            "type" : "VEC3"
        },
        {
            "bufferView" : 2,
            "componentType" : 5126,
            "count" : 3174,
            "type" : "VEC2"
        },
        {
            "bufferView" : 3,
            "componentType" : 5123,
            "count" : 5700,
            "type" : "SCALAR"
        },
        {
            "bufferView" : 4,
            "componentType" : 5126,
            "count" : 1528,
            "max" : [
                3.6302359104156494,
                3.866281032562256,
                4.222103118896484
            ],
            "min" : [
                -2.6504321098327637,
                -3.5500741004943848,
                -0.9962589740753174
            ],
            "type" : "VEC3"
        },
        {
            "bufferView" : 5,
            "componentType" : 5126,
            "count" : 1528,
            "type" : "VEC3"
        },
        {
            "bufferView" : 6,
            "componentType" : 5126,
            "count" : 1528,
            "type" : "VEC2"
        },
        {
            "bufferView" : 7,
            "componentType" : 5123,
            "count" : 2748,
            "type" : "SCALAR"
        }
    ],
    "bufferViews" : [
        {
            "buffer" : 0,
            "byteLength" : 38088,
            "byteOffset" : 0
        },
        {
            "buffer" : 0,
            "byteLength" : 38088,
            "byteOffset" : 38088
        },
        {
            "buffer" : 0,
            "byteLength" : 25392,
            "byteOffset" : 76176
        },
        {
            "buffer" : 0,
            "byteLength" : 11400,
            "byteOffset" : 101568
        },
        {
            "buffer" : 0,
            "byteLength" : 18336,
            "byteOffset" : 112968
        },
        {
            "buffer" : 0,
            "byteLength" : 18336,
            "byteOffset" : 131304
        },
        {
            "buffer" : 0,
            "byteLength" : 12224,
            "byteOffset" : 149640
        },
        {
            "buffer" : 0,
            "byteLength" : 5496,
            "byteOffset" : 161864
        }
    ],
    "buffers" : [
        {
            "byteLength" : 167360,
            "uri" : "example_scene.bin"
        }
    ]
}
